<?xml version="1.0" encoding="UTF-8" standalone="no"?>
<svg
   inkscape:export-ydpi="64"
   inkscape:export-xdpi="64"
   inkscape:export-filename="/Users/des/src/tab-stash/dist/icons/logo-64.png"
   inkscape:version="1.2 (dc2aeda, 2022-05-15)"
   sodipodi:docname="logo.svg"
   width="96"
   height="96"
   viewBox="0 0 96 96"
   version="1.1"
   id="svg10"
   xmlns:inkscape="http://www.inkscape.org/namespaces/inkscape"
   xmlns:sodipodi="http://sodipodi.sourceforge.net/DTD/sodipodi-0.dtd"
   xmlns="http://www.w3.org/2000/svg"
   xmlns:svg="http://www.w3.org/2000/svg"
   xmlns:rdf="http://www.w3.org/1999/02/22-rdf-syntax-ns#"
   xmlns:cc="http://creativecommons.org/ns#"
   xmlns:dc="http://purl.org/dc/elements/1.1/">
  <sodipodi:namedview
     inkscape:snap-smooth-nodes="true"
     inkscape:document-rotation="0"
     inkscape:current-layer="svg10"
     inkscape:window-maximized="0"
     inkscape:window-y="25"
     inkscape:window-x="0"
     inkscape:cy="48"
     inkscape:cx="47.926493"
     inkscape:zoom="6.8020833"
     showgrid="true"
     id="namedview9"
     inkscape:window-height="847"
     inkscape:window-width="1440"
     inkscape:pageshadow="2"
     inkscape:pageopacity="0"
     guidetolerance="10"
     gridtolerance="10"
     objecttolerance="10"
     borderopacity="1"
     bordercolor="#666666"
     pagecolor="#bf4040"
     inkscape:showpageshadow="2"
     inkscape:pagecheckerboard="0"
     inkscape:deskcolor="#d1d1d1">
    <inkscape:grid
       spacingy="3"
       spacingx="3"
       empspacing="2"
       id="grid817"
       type="xygrid" />
  </sodipodi:namedview>
  <metadata
     id="metadata16">
    <rdf:RDF>
      <cc:Work
         rdf:about="">
        <dc:format>image/svg+xml</dc:format>
        <dc:type
           rdf:resource="http://purl.org/dc/dcmitype/StillImage" />
      </cc:Work>
    </rdf:RDF>
  </metadata>
  <defs
     id="defs14" />
  <rect
     style="fill:#ffffff;fill-opacity:1;stroke-width:2.46634;stroke-linecap:round;stroke-linejoin:round;stroke:none"
     id="rect1748"
     width="66"
     height="72"
     x="18"
     y="12" />
  <path
     style="fill:#3d3d42;fill-opacity:1"
     fill="context-fill"
     sodipodi:nodetypes="sssssssssssssssssss"
     inkscape:connector-curvature="0"
     d="M 72,84 H 30 c -6,0 -12,-6 -12,-12 0,-9 0,-9 -3,-9 -3,0 -3,0 -3,9 0,9 9,18 18,18 h 42 c 9,0 18,-9 18,-18 V 24 C 90,15 81,6 72,6 H 30 c -9,0 -18,9 -18,18 0,9 0,9 3,9 3,0 3,0 3,-9 0,-6 6,-12 12,-12 h 42 c 6,0 12,6 12,12 v 48 c 0,6 -6,12 -12,12 z"
     id="path10" />
  <path
     sodipodi:nodetypes="sccccccccccs"
     inkscape:connector-curvature="0"
     id="path857"
     d="m 0,48 c 0,6 6,6 6,6 h 48 c -3,3 -8.650238,9.012556 -12,12 -12,12 -3,18 9,6 3.07918,-3.14791 13.026025,-12.752612 15,-15 9,-9 9,-9 0,-18 L 51,24 C 39,12 30,18 42,30 L 54,42 H 6 c 0,0 -6,0 -6,6 z"
     style="color:#000000;font-style:normal;font-variant:normal;font-weight:normal;font-stretch:normal;font-size:medium;line-height:normal;font-family:sans-serif;font-variant-ligatures:normal;font-variant-position:normal;font-variant-caps:normal;font-variant-numeric:normal;font-variant-alternates:normal;font-variant-east-asian:normal;font-feature-settings:normal;font-variation-settings:normal;text-indent:0;text-align:start;text-decoration:none;text-decoration-line:none;text-decoration-style:solid;text-decoration-color:#000000;letter-spacing:normal;word-spacing:normal;text-transform:none;writing-mode:lr-tb;direction:ltr;text-orientation:mixed;dominant-baseline:auto;baseline-shift:baseline;text-anchor:start;white-space:normal;shape-padding:0;shape-margin:0;inline-size:0;clip-rule:nonzero;display:inline;overflow:visible;visibility:visible;opacity:1;isolation:auto;mix-blend-mode:normal;color-interpolation:sRGB;color-interpolation-filters:linearRGB;solid-color:#000000;solid-opacity:1;vector-effect:none;fill:#3d3d42;fill-opacity:1;fill-rule:nonzero;stroke:none;stroke-width:12;stroke-linecap:round;stroke-linejoin:miter;stroke-miterlimit:4;stroke-dasharray:none;stroke-dashoffset:0;stroke-opacity:1;color-rendering:auto;image-rendering:auto;shape-rendering:auto;text-rendering:auto;enable-background:accumulate;stop-color:#000000;stop-opacity:1" />
</svg>
